<?xml version="1.0" encoding="UTF-8" standalone="no"?>
<svg width="398px" height="512px" viewBox="0 0 398 512" version="1.1" xmlns="http://www.w3.org/2000/svg" xmlns:xlink="http://www.w3.org/1999/xlink" xmlns:sketch="http://www.bohemiancoding.com/sketch/ns">
    <!-- Generator: Sketch 3.4.2 (15857) - http://www.bohemiancoding.com/sketch -->
    <title>Untitled</title>
    <desc>Created with Sketch.</desc>
    <defs></defs>
    <g id="Page-1" stroke="none" stroke-width="1" fill="none" fill-rule="evenodd" sketch:type="MSPage">
        <g id="1448230859_compose" sketch:type="MSLayerGroup" fill="#FFFFFF">
            <g id="Group" sketch:type="MSShapeGroup">
                <g transform="translate(86.000000, 146.000000)" id="Shape">
                    <path d="M222,21.8 L85.2,21.8 C79.5,21.8 74.8,17.1 74.8,11.4 L74.8,10.6 C74.8,4.9 79.5,0.2 85.2,0.2 L222,0.2 C227.7,0.2 232.4,4.9 232.4,10.6 L232.4,11.4 C232.5,17.1 227.8,21.8 222,21.8 L222,21.8 Z"></path>
                    <path d="M222,82.8 L10.9,82.8 C5.2,82.8 0.5,78.1 0.5,72.4 L0.5,71.6 C0.5,65.9 5.2,61.2 10.9,61.2 L222,61.2 C227.7,61.2 232.4,65.9 232.4,71.6 L232.4,72.4 C232.5,78.1 227.8,82.8 222,82.8 L222,82.8 Z"></path>
                    <path d="M222,143.8 L10.9,143.8 C5.2,143.8 0.5,139.1 0.5,133.4 L0.5,132.6 C0.5,126.9 5.2,122.2 10.9,122.2 L222,122.2 C227.7,122.2 232.4,126.9 232.4,132.6 L232.4,133.4 C232.5,139.1 227.8,143.8 222,143.8 L222,143.8 Z"></path>
                    <path d="M222,204.9 L10.9,204.9 C5.2,204.9 0.5,200.2 0.5,194.5 L0.5,193.7 C0.5,188 5.2,183.3 10.9,183.3 L222,183.3 C227.7,183.3 232.4,188 232.4,193.7 L232.4,194.5 C232.5,200.2 227.8,204.9 222,204.9 L222,204.9 Z"></path>
                    <path d="M222,265.9 L10.9,265.9 C5.2,265.9 0.5,261.2 0.5,255.5 L0.5,254.7 C0.5,249 5.2,244.3 10.9,244.3 L222,244.3 C227.7,244.3 232.4,249 232.4,254.7 L232.4,255.5 C232.5,261.2 227.8,265.9 222,265.9 L222,265.9 Z"></path>
                </g>
                <path d="M335,43.5 L122.2,43.5 L160.8,94.9 L305.5,94.9 C332.7,94.9 355,117.2 355,144.4 L355,413.7 C355,440.9 332.7,463.2 305.5,463.2 L97.4,463.2 C70.2,463.2 47.9,440.9 47.9,413.7 L47.9,150.9 L8.3,98.4 C8,101.1 7.5,103.7 7.5,106.4 L7.5,448.7 C7.5,483.3 35.8,511.7 70.5,511.7 L335,511.7 C369.6,511.7 398,483.4 398,448.7 L398,106.4 C397.9,71.8 369.6,43.5 335,43.5 L335,43.5 Z" id="Shape"></path>
                <g id="Shape">
                    <path d="M68.5,149.8 L136.8,174.8 C140.4,176.1 143.3,174.1 143.1,170.2 L139.9,97.5 C139.8,96 139.4,94.6 138.6,93.2 L138.7,93.1 C138.6,92.9 138.4,92.7 138.3,92.5 L89.5,25.9 L73.5,37.6 L117.6,97.8 C119.4,100.2 118.8,103.6 116.4,105.4 L112.6,108.2 C110.2,110 106.8,109.4 105,107 L61,46.9 L45.2,58.5 L89.6,119.2 C91.2,121.4 90.7,124.4 88.5,126 L83.8,129.5 C81.6,131.1 78.6,130.6 77,128.4 L32.6,67.6 L15.6,80 L62.8,144.4 C64,146.8 66,148.9 68.5,149.8 L68.5,149.8 Z M81,141.9 L128.6,107 C131.5,104.9 136.2,108.3 136.4,112.8 L137.5,152.5 C136.8,152.7 136.1,152.8 135.5,153.2 L121.3,163.6 C121.2,163.7 121,163.6 121,163.7 L84.2,151.1 C80,149.6 78.1,144 81,141.9 L81,141.9 Z"></path>
                    <path d="M11.9,75.3 L6.2,67.6 C-4.3,53.3 -1.1,33.1 13.2,22.6 L35.2,6.5 C49.5,-4 69.7,-0.8 80.2,13.5 L85.9,21.2 L11.9,75.3 L11.9,75.3 Z"></path>
                </g>
            </g>
        </g>
    </g>
</svg>