<?xml version="1.0" encoding="UTF-8" standalone="no"?>
<svg width="450px" height="480px" viewBox="0 0 450 480" version="1.1" xmlns="http://www.w3.org/2000/svg" xmlns:xlink="http://www.w3.org/1999/xlink" xmlns:sketch="http://www.bohemiancoding.com/sketch/ns">
    <!-- Generator: Sketch 3.4.2 (15857) - http://www.bohemiancoding.com/sketch -->
    <title>Untitled</title>
    <desc>Created with Sketch.</desc>
    <defs></defs>
    <g id="Page-1" stroke="none" stroke-width="1" fill="none" fill-rule="evenodd" sketch:type="MSPage">
        <g id="keys" sketch:type="MSLayerGroup" fill="#FFFFFF">
            <path d="M201.969,361.5 L168.031,327.562 L284.828,210.75 C327.266,233.625 381.078,227.625 416.953,191.812 C460.641,148.062 460.641,77.124 416.953,33.437 C373.203,-10.313 302.265,-10.313 258.515,33.437 C222.702,69.25 216.734,123.125 239.593,165.5 L9.64,395.5 C-2.813,407.938 -2.813,428.313 9.64,440.75 C22.078,453.188 42.453,453.188 54.89,440.75 L88.828,474.688 C95.078,480.938 105.203,480.938 111.453,474.688 L134.078,452.063 C140.344,445.813 140.344,435.688 134.078,429.438 L100.141,395.5 L122.766,372.812 L156.719,406.812 C162.969,413.062 173.094,413.062 179.344,406.812 L201.969,384.187 C208.219,377.875 208.219,367.813 201.969,361.5 L201.969,361.5 Z M303.766,78.688 C322.516,59.938 352.954,59.938 371.704,78.688 C390.392,97.376 390.392,127.876 371.704,146.563 C352.954,165.251 322.516,165.251 303.766,146.563 C285.078,127.875 285.078,97.375 303.766,78.688 L303.766,78.688 Z" id="Shape" sketch:type="MSShapeGroup"></path>
        </g>
    </g>
</svg>